<?xml version="1.0" encoding="UTF-8" standalone="no"?>
<svg xmlns="http://www.w3.org/2000/svg" xmlns:xlink="http://www.w3.org/1999/xlink" contentScriptType="application/ecmascript" contentStyleType="text/css" height="726px" preserveAspectRatio="none" style="width:447px;height:726px;" version="1.1" viewBox="0 0 447 726" width="447px" zoomAndPan="magnify">
    <defs>
        <filter height="300%" id="ffwz2nzckfg50" width="300%" x="-1" y="-1">
            <feGaussianBlur result="blurOut" stdDeviation="2.0" />
            <feColorMatrix in="blurOut" result="blurOut2" type="matrix" values="0 0 0 0 0 0 0 0 0 0 0 0 0 0 0 0 0 0 .4 0" />
            <feOffset dx="4.0" dy="4.0" in="blurOut2" result="blurOut3" />
            <feBlend in="SourceGraphic" in2="blurOut3" mode="normal" />
        </filter>
    </defs>
    <g> <!--class Work-->
        <rect fill="#FEFECE" filter="url(#ffwz2nzckfg50)" height="48" id="Work" style="stroke: #A80036; stroke-width: 1.5;" width="63" x="130.5" y="117" />
        <ellipse cx="145.5" cy="133" fill="#ADD1B2" rx="11" ry="11" style="stroke: #A80036; stroke-width: 1.0;" />
        <path d="M147.8438,128.6719 L148.0156,128.75 C148.2344,128.4375 148.4375,128.3438 148.7344,128.3438 C149.0313,128.3438 149.3125,128.4844 149.4688,128.75 C149.5625,128.9063 149.5781,129.0313 149.5781,129.4688 L149.5781,130.8906 C149.5781,131.3125 149.5469,131.5 149.4375,131.6563 C149.2656,131.875 149,132.0156 148.7344,132.0156 C148.5156,132.0156 148.2813,131.9063 148.1406,131.7656 C148,131.6406 147.9688,131.5156 147.9063,131.1094 C147.8125,130.7031 147.6406,130.4844 147.1563,130.2031 C146.6875,129.9531 146.0781,129.7969 145.5,129.7969 C143.7656,129.7969 142.5156,131.1094 142.5156,132.8906 L142.5156,133.9844 C142.5156,135.6875 143.8125,136.7813 145.8594,136.7813 C146.625,136.7813 147.3125,136.6563 147.7344,136.3906 C147.9219,136.2969 147.9219,136.2969 148.375,135.8125 C148.5625,135.625 148.7656,135.5469 148.9844,135.5469 C149.4531,135.5469 149.8438,135.9375 149.8438,136.3906 C149.8438,136.7813 149.5156,137.2344 148.9375,137.6406 C148.1875,138.1875 147.0313,138.4844 145.8125,138.4844 C142.9219,138.4844 140.8125,136.5938 140.8125,134.0156 L140.8125,132.8906 C140.8125,130.1719 142.8125,128.0938 145.4375,128.0938 C146.3125,128.0938 146.9063,128.2344 147.8438,128.6719 Z " />
        <text fill="#000000" font-family="sans-serif" font-size="12" lengthAdjust="spacingAndGlyphs" textLength="31" x="159.5" y="137.1543">Work</text>
        <line style="stroke: #A80036; stroke-width: 1.5;" x1="131.5" x2="192.5" y1="149" y2="149" />
        <line style="stroke: #A80036; stroke-width: 1.5;" x1="131.5" x2="192.5" y1="157" y2="157" /> <!--class Actor-->
        <rect fill="#FEFECE" filter="url(#ffwz2nzckfg50)" height="48" id="Actor" style="stroke: #A80036; stroke-width: 1.5;" width="65" x="12.5" y="667" />
        <ellipse cx="27.5" cy="683" fill="#ADD1B2" rx="11" ry="11" style="stroke: #A80036; stroke-width: 1.0;" />
        <path d="M29.8438,678.6719 L30.0156,678.75 C30.2344,678.4375 30.4375,678.3438 30.7344,678.3438 C31.0313,678.3438 31.3125,678.4844 31.4688,678.75 C31.5625,678.9063 31.5781,679.0313 31.5781,679.4688 L31.5781,680.8906 C31.5781,681.3125 31.5469,681.5 31.4375,681.6563 C31.2656,681.875 31,682.0156 30.7344,682.0156 C30.5156,682.0156 30.2813,681.9063 30.1406,681.7656 C30,681.6406 29.9688,681.5156 29.9063,681.1094 C29.8125,680.7031 29.6406,680.4844 29.1563,680.2031 C28.6875,679.9531 28.0781,679.7969 27.5,679.7969 C25.7656,679.7969 24.5156,681.1094 24.5156,682.8906 L24.5156,683.9844 C24.5156,685.6875 25.8125,686.7813 27.8594,686.7813 C28.625,686.7813 29.3125,686.6563 29.7344,686.3906 C29.9219,686.2969 29.9219,686.2969 30.375,685.8125 C30.5625,685.625 30.7656,685.5469 30.9844,685.5469 C31.4531,685.5469 31.8438,685.9375 31.8438,686.3906 C31.8438,686.7813 31.5156,687.2344 30.9375,687.6406 C30.1875,688.1875 29.0313,688.4844 27.8125,688.4844 C24.9219,688.4844 22.8125,686.5938 22.8125,684.0156 L22.8125,682.8906 C22.8125,680.1719 24.8125,678.0938 27.4375,678.0938 C28.3125,678.0938 28.9063,678.2344 29.8438,678.6719 Z " />
        <text fill="#000000" font-family="sans-serif" font-size="12" lengthAdjust="spacingAndGlyphs" textLength="33" x="41.5" y="687.1543">Actor</text>
        <line style="stroke: #A80036; stroke-width: 1.5;" x1="13.5" x2="76.5" y1="699" y2="699" />
        <line style="stroke: #A80036; stroke-width: 1.5;" x1="13.5" x2="76.5" y1="707" y2="707" /> <!--class Person-->
        <rect fill="#FEFECE" filter="url(#ffwz2nzckfg50)" height="48" id="Person" style="stroke: #A80036; stroke-width: 1.5;" width="76" x="176" y="449" />
        <ellipse cx="191" cy="465" fill="#ADD1B2" rx="11" ry="11" style="stroke: #A80036; stroke-width: 1.0;" />
        <path d="M193.3438,460.6719 L193.5156,460.75 C193.7344,460.4375 193.9375,460.3438 194.2344,460.3438 C194.5313,460.3438 194.8125,460.4844 194.9688,460.75 C195.0625,460.9063 195.0781,461.0313 195.0781,461.4688 L195.0781,462.8906 C195.0781,463.3125 195.0469,463.5 194.9375,463.6563 C194.7656,463.875 194.5,464.0156 194.2344,464.0156 C194.0156,464.0156 193.7813,463.9063 193.6406,463.7656 C193.5,463.6406 193.4688,463.5156 193.4063,463.1094 C193.3125,462.7031 193.1406,462.4844 192.6563,462.2031 C192.1875,461.9531 191.5781,461.7969 191,461.7969 C189.2656,461.7969 188.0156,463.1094 188.0156,464.8906 L188.0156,465.9844 C188.0156,467.6875 189.3125,468.7813 191.3594,468.7813 C192.125,468.7813 192.8125,468.6563 193.2344,468.3906 C193.4219,468.2969 193.4219,468.2969 193.875,467.8125 C194.0625,467.625 194.2656,467.5469 194.4844,467.5469 C194.9531,467.5469 195.3438,467.9375 195.3438,468.3906 C195.3438,468.7813 195.0156,469.2344 194.4375,469.6406 C193.6875,470.1875 192.5313,470.4844 191.3125,470.4844 C188.4219,470.4844 186.3125,468.5938 186.3125,466.0156 L186.3125,464.8906 C186.3125,462.1719 188.3125,460.0938 190.9375,460.0938 C191.8125,460.0938 192.4063,460.2344 193.3438,460.6719 Z " />
        <text fill="#000000" font-family="sans-serif" font-size="12" lengthAdjust="spacingAndGlyphs" textLength="44" x="205" y="469.1543">Person</text>
        <line style="stroke: #A80036; stroke-width: 1.5;" x1="177" x2="251" y1="481" y2="481" />
        <line style="stroke: #A80036; stroke-width: 1.5;" x1="177" x2="251" y1="489" y2="489" /> <!--class Film-->
        <rect fill="#FEFECE" filter="url(#ffwz2nzckfg50)" height="99.2188" id="Film" style="stroke: #A80036; stroke-width: 1.5;" width="223" x="213.5" y="273" />
        <ellipse cx="308.75" cy="289" fill="#ADD1B2" rx="11" ry="11" style="stroke: #A80036; stroke-width: 1.0;" />
        <path d="M311.0938,284.6719 L311.2656,284.75 C311.4844,284.4375 311.6875,284.3438 311.9844,284.3438 C312.2813,284.3438 312.5625,284.4844 312.7188,284.75 C312.8125,284.9063 312.8281,285.0313 312.8281,285.4688 L312.8281,286.8906 C312.8281,287.3125 312.7969,287.5 312.6875,287.6563 C312.5156,287.875 312.25,288.0156 311.9844,288.0156 C311.7656,288.0156 311.5313,287.9063 311.3906,287.7656 C311.25,287.6406 311.2188,287.5156 311.1563,287.1094 C311.0625,286.7031 310.8906,286.4844 310.4063,286.2031 C309.9375,285.9531 309.3281,285.7969 308.75,285.7969 C307.0156,285.7969 305.7656,287.1094 305.7656,288.8906 L305.7656,289.9844 C305.7656,291.6875 307.0625,292.7813 309.1094,292.7813 C309.875,292.7813 310.5625,292.6563 310.9844,292.3906 C311.1719,292.2969 311.1719,292.2969 311.625,291.8125 C311.8125,291.625 312.0156,291.5469 312.2344,291.5469 C312.7031,291.5469 313.0938,291.9375 313.0938,292.3906 C313.0938,292.7813 312.7656,293.2344 312.1875,293.6406 C311.4375,294.1875 310.2813,294.4844 309.0625,294.4844 C306.1719,294.4844 304.0625,292.5938 304.0625,290.0156 L304.0625,288.8906 C304.0625,286.1719 306.0625,284.0938 308.6875,284.0938 C309.5625,284.0938 310.1563,284.2344 311.0938,284.6719 Z " />
        <text fill="#000000" font-family="sans-serif" font-size="12" lengthAdjust="spacingAndGlyphs" textLength="24" x="329.25" y="293.1543">Film</text>
        <line style="stroke: #A80036; stroke-width: 1.5;" x1="214.5" x2="435.5" y1="305" y2="305" />
        <text fill="#000000" font-family="sans-serif" font-size="11" lengthAdjust="spacingAndGlyphs" textLength="80" x="219.5" y="319.2104">name sup=98</text>
        <text fill="#000000" font-family="sans-serif" font-size="11" lengthAdjust="spacingAndGlyphs" textLength="75" x="219.5" y="332.0151">label sup=99</text>
        <text fill="#000000" font-family="sans-serif" font-size="11" lengthAdjust="spacingAndGlyphs" textLength="211" x="219.5" y="344.8198">runtime:XMLSchema#double sup=73</text>
        <text fill="#000000" font-family="sans-serif" font-size="11" lengthAdjust="spacingAndGlyphs" textLength="79" x="219.5" y="357.6245">type sup=100</text>
        <line style="stroke: #A80036; stroke-width: 1.5;" x1="214.5" x2="435.5" y1="364.2188" y2="364.2188" /> <!--class Thing-->
        <rect fill="#FEFECE" filter="url(#ffwz2nzckfg50)" height="48" id="Thing" style="stroke: #A80036; stroke-width: 1.5;" width="66" x="189" y="8" />
        <ellipse cx="204" cy="24" fill="#ADD1B2" rx="11" ry="11" style="stroke: #A80036; stroke-width: 1.0;" />
        <path d="M206.3438,19.6719 L206.5156,19.75 C206.7344,19.4375 206.9375,19.3438 207.2344,19.3438 C207.5313,19.3438 207.8125,19.4844 207.9688,19.75 C208.0625,19.9063 208.0781,20.0313 208.0781,20.4688 L208.0781,21.8906 C208.0781,22.3125 208.0469,22.5 207.9375,22.6563 C207.7656,22.875 207.5,23.0156 207.2344,23.0156 C207.0156,23.0156 206.7813,22.9063 206.6406,22.7656 C206.5,22.6406 206.4688,22.5156 206.4063,22.1094 C206.3125,21.7031 206.1406,21.4844 205.6563,21.2031 C205.1875,20.9531 204.5781,20.7969 204,20.7969 C202.2656,20.7969 201.0156,22.1094 201.0156,23.8906 L201.0156,24.9844 C201.0156,26.6875 202.3125,27.7813 204.3594,27.7813 C205.125,27.7813 205.8125,27.6563 206.2344,27.3906 C206.4219,27.2969 206.4219,27.2969 206.875,26.8125 C207.0625,26.625 207.2656,26.5469 207.4844,26.5469 C207.9531,26.5469 208.3438,26.9375 208.3438,27.3906 C208.3438,27.7813 208.0156,28.2344 207.4375,28.6406 C206.6875,29.1875 205.5313,29.4844 204.3125,29.4844 C201.4219,29.4844 199.3125,27.5938 199.3125,25.0156 L199.3125,23.8906 C199.3125,21.1719 201.3125,19.0938 203.9375,19.0938 C204.8125,19.0938 205.4063,19.2344 206.3438,19.6719 Z " />
        <text fill="#000000" font-family="sans-serif" font-size="12" lengthAdjust="spacingAndGlyphs" textLength="34" x="218" y="28.1543">Thing</text>
        <line style="stroke: #A80036; stroke-width: 1.5;" x1="190" x2="254" y1="40" y2="40" />
        <line style="stroke: #A80036; stroke-width: 1.5;" x1="190" x2="254" y1="48" y2="48" /> <!--class Agent-->
        <rect fill="#FEFECE" filter="url(#ffwz2nzckfg50)" height="48" id="Agent" style="stroke: #A80036; stroke-width: 1.5;" width="69" x="354.5" y="195" />
        <ellipse cx="369.5" cy="211" fill="#ADD1B2" rx="11" ry="11" style="stroke: #A80036; stroke-width: 1.0;" />
        <path d="M371.8438,206.6719 L372.0156,206.75 C372.2344,206.4375 372.4375,206.3438 372.7344,206.3438 C373.0313,206.3438 373.3125,206.4844 373.4688,206.75 C373.5625,206.9063 373.5781,207.0313 373.5781,207.4688 L373.5781,208.8906 C373.5781,209.3125 373.5469,209.5 373.4375,209.6563 C373.2656,209.875 373,210.0156 372.7344,210.0156 C372.5156,210.0156 372.2813,209.9063 372.1406,209.7656 C372,209.6406 371.9688,209.5156 371.9063,209.1094 C371.8125,208.7031 371.6406,208.4844 371.1563,208.2031 C370.6875,207.9531 370.0781,207.7969 369.5,207.7969 C367.7656,207.7969 366.5156,209.1094 366.5156,210.8906 L366.5156,211.9844 C366.5156,213.6875 367.8125,214.7813 369.8594,214.7813 C370.625,214.7813 371.3125,214.6563 371.7344,214.3906 C371.9219,214.2969 371.9219,214.2969 372.375,213.8125 C372.5625,213.625 372.7656,213.5469 372.9844,213.5469 C373.4531,213.5469 373.8438,213.9375 373.8438,214.3906 C373.8438,214.7813 373.5156,215.2344 372.9375,215.6406 C372.1875,216.1875 371.0313,216.4844 369.8125,216.4844 C366.9219,216.4844 364.8125,214.5938 364.8125,212.0156 L364.8125,210.8906 C364.8125,208.1719 366.8125,206.0938 369.4375,206.0938 C370.3125,206.0938 370.9063,206.2344 371.8438,206.6719 Z " />
        <text fill="#000000" font-family="sans-serif" font-size="12" lengthAdjust="spacingAndGlyphs" textLength="37" x="383.5" y="215.1543">Agent</text>
        <line style="stroke: #A80036; stroke-width: 1.5;" x1="355.5" x2="422.5" y1="227" y2="227" />
        <line style="stroke: #A80036; stroke-width: 1.5;" x1="355.5" x2="422.5" y1="235" y2="235" /> <!--class Artist-->
        <rect fill="#FEFECE" filter="url(#ffwz2nzckfg50)" height="48" id="Artist" style="stroke: #A80036; stroke-width: 1.5;" width="65" x="89.5" y="558" />
        <ellipse cx="104.5" cy="574" fill="#ADD1B2" rx="11" ry="11" style="stroke: #A80036; stroke-width: 1.0;" />
        <path d="M106.8438,569.6719 L107.0156,569.75 C107.2344,569.4375 107.4375,569.3438 107.7344,569.3438 C108.0313,569.3438 108.3125,569.4844 108.4688,569.75 C108.5625,569.9063 108.5781,570.0313 108.5781,570.4688 L108.5781,571.8906 C108.5781,572.3125 108.5469,572.5 108.4375,572.6563 C108.2656,572.875 108,573.0156 107.7344,573.0156 C107.5156,573.0156 107.2813,572.9063 107.1406,572.7656 C107,572.6406 106.9688,572.5156 106.9063,572.1094 C106.8125,571.7031 106.6406,571.4844 106.1563,571.2031 C105.6875,570.9531 105.0781,570.7969 104.5,570.7969 C102.7656,570.7969 101.5156,572.1094 101.5156,573.8906 L101.5156,574.9844 C101.5156,576.6875 102.8125,577.7813 104.8594,577.7813 C105.625,577.7813 106.3125,577.6563 106.7344,577.3906 C106.9219,577.2969 106.9219,577.2969 107.375,576.8125 C107.5625,576.625 107.7656,576.5469 107.9844,576.5469 C108.4531,576.5469 108.8438,576.9375 108.8438,577.3906 C108.8438,577.7813 108.5156,578.2344 107.9375,578.6406 C107.1875,579.1875 106.0313,579.4844 104.8125,579.4844 C101.9219,579.4844 99.8125,577.5938 99.8125,575.0156 L99.8125,573.8906 C99.8125,571.1719 101.8125,569.0938 104.4375,569.0938 C105.3125,569.0938 105.9063,569.2344 106.8438,569.6719 Z " />
        <text fill="#000000" font-family="sans-serif" font-size="12" lengthAdjust="spacingAndGlyphs" textLength="33" x="118.5" y="578.1543">Artist</text>
        <line style="stroke: #A80036; stroke-width: 1.5;" x1="90.5" x2="153.5" y1="590" y2="590" />
        <line style="stroke: #A80036; stroke-width: 1.5;" x1="90.5" x2="153.5" y1="598" y2="598" /> <!--link Work to Actor-->
        <path d="M130.338,141 C95.6881,141 45,141 45,141 C45,141 45,560.216 45,666.6575 " fill="none" id="Work-Actor" style="stroke: #A80036; stroke-width: 1.0;" />
        <text fill="#000000" font-family="sans-serif" font-size="13" lengthAdjust="spacingAndGlyphs" textLength="96" x="7" y="477.5669">starring sup:82</text> <!--link Work to Person-->
        <path d="M184.75,165.144 C184.75,226.472 184.75,387.717 184.75,448.946 " fill="none" id="Work-Person" style="stroke: #A80036; stroke-width: 1.0;" />
        <text fill="#000000" font-family="sans-serif" font-size="13" lengthAdjust="spacingAndGlyphs" textLength="82" x="95" y="327.0669">writer sup:63</text> <!--link Film to Person-->
        <path d="M232.75,372.196 C232.75,397.882 232.75,428.076 232.75,448.676 " fill="none" id="Film-Person" style="stroke: #A80036; stroke-width: 1.0;" />
        <text fill="#000000" font-family="sans-serif" font-size="13" lengthAdjust="spacingAndGlyphs" textLength="96" x="289" y="415.0669">director sup:82</text> <!--link Thing to Agent-->
        <path d="M241.167,76.141 C241.167,76.141 241.167,211 241.167,211 C241.167,211 310.645,211 354.34,211 " fill="none" id="Thing-Agent" style="stroke: #A80036; stroke-width: 1.0;" />
        <polygon fill="none" points="234.167,76.141,241.167,56.141,248.167,76.141,234.167,76.141" style="stroke: #A80036; stroke-width: 1.0;" /> <!--link Artist to Actor-->
        <path d="M122,626.1906 C122,626.1906 122,691 122,691 C122,691 98.6413,691 77.6549,691 " fill="none" id="Artist-Actor" style="stroke: #A80036; stroke-width: 1.0;" />
        <polygon fill="none" points="115,626.1907,122,606.191,129,626.1906,115,626.1907" style="stroke: #A80036; stroke-width: 1.0;" /> <!--link Agent to Person-->
        <path d="M334.365,227 C334.365,227 200.167,227 200.167,227 C200.167,227 200.167,387.065 200.167,448.965 " fill="none" id="Agent-Person" style="stroke: #A80036; stroke-width: 1.0;" />
        <polygon fill="none" points="334.365,220,354.365,227,334.365,234,334.365,220" style="stroke: #A80036; stroke-width: 1.0;" /> <!--link Thing to Work-->
        <path d="M206.833,76.192 C206.833,76.192 206.833,133 206.833,133 C206.833,133 201.043,133 193.624,133 " fill="none" id="Thing-Work" style="stroke: #A80036; stroke-width: 1.0;" />
        <polygon fill="none" points="199.833,76.192,206.833,56.192,213.833,76.192,199.833,76.192" style="stroke: #A80036; stroke-width: 1.0;" /> <!--link Person to Artist-->
        <path d="M155.738,473 C155.738,473 142.5,473 142.5,473 C142.5,473 142.5,525.697 142.5,557.809 " fill="none" id="Person-Artist" style="stroke: #A80036; stroke-width: 1.0;" />
        <polygon fill="none" points="155.738,466,175.738,473,155.738,480,155.738,466" style="stroke: #A80036; stroke-width: 1.0;" /> <!--link Work to Film-->
        <path d="M213.518,149 C213.518,149 227.333,149 227.333,149 C227.333,149 227.333,221.513 227.333,272.782 " fill="none" id="Work-Film" style="stroke: #A80036; stroke-width: 1.0;" />
        <polygon fill="none" points="213.518,156,193.518,149,213.518,142,213.518,156" style="stroke: #A80036; stroke-width: 1.0;" /> <!--
@startuml

                skinparam linetype ortho
                Work - - Actor : starring sup:82
                Work - - Person : writer sup:63
                Film - - Person : director sup:82
                class Film{
                name sup=98
                label sup=99
                runtime:XMLSchema#double sup=73
                type sup=100
                }
                Thing <|- - Agent
                Artist <|- - Actor
                Agent <|- - Person
                Thing <|- - Work
                Person <|- - Artist
                Work <|- - Film
@enduml

PlantUML version 1.2018.14(Fri Dec 21 16:33:16 UTC 2018)
(GPL source distribution)
Java Runtime: Java(TM) SE Runtime Environment
JVM: Java HotSpot(TM) 64-Bit Server VM
Java Version: 1.7.0_25-b15
Operating System: Linux
Default Encoding: UTF-8
Language: en
Country: US
-->
    </g>
</svg>